solid electronic case^Bioreactorwithout main container - intletcover-1
   facet normal -9.372785e-16 1.000000e+00 0.000000e+00
      outer loop
         vertex 1.314956e+01 6.893129e+02 5.833589e+01
         vertex 3.867431e+01 6.893129e+02 5.833589e+01
         vertex 1.314956e+01 6.893129e+02 1.233590e+01
      endloop
   endfacet
   facet normal -9.372785e-16 1.000000e+00 0.000000e+00
      outer loop
         vertex 1.314956e+01 6.893129e+02 1.233590e+01
         vertex 3.867431e+01 6.893129e+02 5.833589e+01
         vertex 3.867431e+01 6.893129e+02 1.233590e+01
      endloop
   endfacet
   facet normal -1.000000e+00 -9.372785e-16 0.000000e+00
      outer loop
         vertex 1.314956e+01 6.873129e+02 5.833589e+01
         vertex 1.314956e+01 6.893129e+02 5.833589e+01
         vertex 1.314956e+01 6.873129e+02 1.233590e+01
      endloop
   endfacet
   facet normal -1.000000e+00 -9.372785e-16 0.000000e+00
      outer loop
         vertex 1.314956e+01 6.873129e+02 1.233590e+01
         vertex 1.314956e+01 6.893129e+02 5.833589e+01
         vertex 1.314956e+01 6.893129e+02 1.233590e+01
      endloop
   endfacet
   facet normal 9.372785e-16 -1.000000e+00 0.000000e+00
      outer loop
         vertex 4.067431e+01 6.873129e+02 5.833589e+01
         vertex 1.314956e+01 6.873129e+02 5.833589e+01
         vertex 4.067431e+01 6.873129e+02 1.233590e+01
      endloop
   endfacet
   facet normal 9.372785e-16 -1.000000e+00 -0.000000e+00
      outer loop
         vertex 4.067431e+01 6.873129e+02 1.233590e+01
         vertex 1.314956e+01 6.873129e+02 5.833589e+01
         vertex 1.314956e+01 6.873129e+02 1.233590e+01
      endloop
   endfacet
   facet normal 1.000000e+00 9.372785e-16 0.000000e+00
      outer loop
         vertex 4.067431e+01 7.223129e+02 5.833589e+01
         vertex 4.067431e+01 6.873129e+02 5.833589e+01
         vertex 4.067431e+01 7.223129e+02 1.233590e+01
      endloop
   endfacet
   facet normal 1.000000e+00 9.372785e-16 0.000000e+00
      outer loop
         vertex 4.067431e+01 7.223129e+02 1.233590e+01
         vertex 4.067431e+01 6.873129e+02 5.833589e+01
         vertex 4.067431e+01 6.873129e+02 1.233590e+01
      endloop
   endfacet
   facet normal -9.372785e-16 1.000000e+00 0.000000e+00
      outer loop
         vertex 1.314956e+01 7.223129e+02 5.833589e+01
         vertex 4.067431e+01 7.223129e+02 5.833589e+01
         vertex 1.314956e+01 7.223129e+02 1.233590e+01
      endloop
   endfacet
   facet normal -9.372785e-16 1.000000e+00 0.000000e+00
      outer loop
         vertex 1.314956e+01 7.223129e+02 1.233590e+01
         vertex 4.067431e+01 7.223129e+02 5.833589e+01
         vertex 4.067431e+01 7.223129e+02 1.233590e+01
      endloop
   endfacet
   facet normal -1.000000e+00 -9.372785e-16 0.000000e+00
      outer loop
         vertex 1.314956e+01 7.203129e+02 5.833589e+01
         vertex 1.314956e+01 7.223129e+02 5.833589e+01
         vertex 1.314956e+01 7.203129e+02 1.233590e+01
      endloop
   endfacet
   facet normal -1.000000e+00 -9.372785e-16 0.000000e+00
      outer loop
         vertex 1.314956e+01 7.203129e+02 1.233590e+01
         vertex 1.314956e+01 7.223129e+02 5.833589e+01
         vertex 1.314956e+01 7.223129e+02 1.233590e+01
      endloop
   endfacet
   facet normal 9.372785e-16 -1.000000e+00 0.000000e+00
      outer loop
         vertex 3.867431e+01 7.203129e+02 5.833589e+01
         vertex 1.314956e+01 7.203129e+02 5.833589e+01
         vertex 3.867431e+01 7.203129e+02 1.233590e+01
      endloop
   endfacet
   facet normal 9.372785e-16 -1.000000e+00 -0.000000e+00
      outer loop
         vertex 3.867431e+01 7.203129e+02 1.233590e+01
         vertex 1.314956e+01 7.203129e+02 5.833589e+01
         vertex 1.314956e+01 7.203129e+02 1.233590e+01
      endloop
   endfacet
   facet normal -1.000000e+00 -9.372785e-16 0.000000e+00
      outer loop
         vertex 3.867431e+01 6.893129e+02 5.833589e+01
         vertex 3.867431e+01 7.203129e+02 5.833589e+01
         vertex 3.867431e+01 6.893129e+02 1.233590e+01
      endloop
   endfacet
   facet normal -1.000000e+00 -9.372785e-16 0.000000e+00
      outer loop
         vertex 3.867431e+01 6.893129e+02 1.233590e+01
         vertex 3.867431e+01 7.203129e+02 5.833589e+01
         vertex 3.867431e+01 7.203129e+02 1.233590e+01
      endloop
   endfacet
   facet normal 0.000000e+00 0.000000e+00 1.000000e+00
      outer loop
         vertex 1.314956e+01 6.893129e+02 5.833589e+01
         vertex 1.314956e+01 6.873129e+02 5.833589e+01
         vertex 3.867431e+01 6.893129e+02 5.833589e+01
      endloop
   endfacet
   facet normal 0.000000e+00 0.000000e+00 1.000000e+00
      outer loop
         vertex 3.867431e+01 6.893129e+02 5.833589e+01
         vertex 1.314956e+01 6.873129e+02 5.833589e+01
         vertex 4.067431e+01 6.873129e+02 5.833589e+01
      endloop
   endfacet
   facet normal 0.000000e+00 0.000000e+00 1.000000e+00
      outer loop
         vertex 3.867431e+01 6.893129e+02 5.833589e+01
         vertex 4.067431e+01 6.873129e+02 5.833589e+01
         vertex 3.867431e+01 7.203129e+02 5.833589e+01
      endloop
   endfacet
   facet normal 0.000000e+00 0.000000e+00 1.000000e+00
      outer loop
         vertex 3.867431e+01 7.203129e+02 5.833589e+01
         vertex 4.067431e+01 6.873129e+02 5.833589e+01
         vertex 4.067431e+01 7.223129e+02 5.833589e+01
      endloop
   endfacet
   facet normal 0.000000e+00 0.000000e+00 1.000000e+00
      outer loop
         vertex 3.867431e+01 7.203129e+02 5.833589e+01
         vertex 4.067431e+01 7.223129e+02 5.833589e+01
         vertex 1.314956e+01 7.203129e+02 5.833589e+01
      endloop
   endfacet
   facet normal 0.000000e+00 0.000000e+00 1.000000e+00
      outer loop
         vertex 1.314956e+01 7.203129e+02 5.833589e+01
         vertex 4.067431e+01 7.223129e+02 5.833589e+01
         vertex 1.314956e+01 7.223129e+02 5.833589e+01
      endloop
   endfacet
   facet normal 0.000000e+00 0.000000e+00 -1.000000e+00
      outer loop
         vertex 1.314956e+01 7.203129e+02 1.233590e+01
         vertex 1.314956e+01 7.223129e+02 1.233590e+01
         vertex 3.867431e+01 7.203129e+02 1.233590e+01
      endloop
   endfacet
   facet normal 0.000000e+00 0.000000e+00 -1.000000e+00
      outer loop
         vertex 3.867431e+01 7.203129e+02 1.233590e+01
         vertex 1.314956e+01 7.223129e+02 1.233590e+01
         vertex 4.067431e+01 7.223129e+02 1.233590e+01
      endloop
   endfacet
   facet normal 0.000000e+00 0.000000e+00 -1.000000e+00
      outer loop
         vertex 3.867431e+01 7.203129e+02 1.233590e+01
         vertex 4.067431e+01 7.223129e+02 1.233590e+01
         vertex 3.867431e+01 6.893129e+02 1.233590e+01
      endloop
   endfacet
   facet normal 0.000000e+00 0.000000e+00 -1.000000e+00
      outer loop
         vertex 3.867431e+01 6.893129e+02 1.233590e+01
         vertex 4.067431e+01 7.223129e+02 1.233590e+01
         vertex 4.067431e+01 6.873129e+02 1.233590e+01
      endloop
   endfacet
   facet normal 0.000000e+00 0.000000e+00 -1.000000e+00
      outer loop
         vertex 3.867431e+01 6.893129e+02 1.233590e+01
         vertex 4.067431e+01 6.873129e+02 1.233590e+01
         vertex 1.314956e+01 6.893129e+02 1.233590e+01
      endloop
   endfacet
   facet normal 0.000000e+00 0.000000e+00 -1.000000e+00
      outer loop
         vertex 1.314956e+01 6.893129e+02 1.233590e+01
         vertex 4.067431e+01 6.873129e+02 1.233590e+01
         vertex 1.314956e+01 6.873129e+02 1.233590e+01
      endloop
   endfacet
endsolid